<svg width="700" height="860" fill="none" xmlns="http://www.w3.org/2000/svg"><g clip-path="url(#clip0_1219_2012)"><path d="M-972.79 453.809l628.593-810.301c5.852-7.544 17.787-.763 13.818 7.851l-592.505 1285.95L35.71-667.459c5.072-8.491 18.224-2.4 14.51 6.719L-517.65 733.29c-3.604 8.849 8.837 15.068 14.251 7.124L7.891-9.656c5.121-7.513 16.983-2.378 14.536 6.292l-180.024 637.985c-2.289 8.113 8.213 13.493 13.893 7.117l347.593-390.179c4.73-5.309 13.599-2.557 14.16 4.394l34.581 429.04c.48 5.947 7.306 9.15 12.459 5.845l347.316-222.709c4.276-2.742 10-1.048 11.898 3.522l123.766 297.915" stroke="#fff" stroke-opacity=".5" stroke-width="70" stroke-linecap="round"/></g><defs><clipPath id="clip0_1219_2012"><path fill="#fff" d="M0 0h700v900H0z"/></clipPath></defs></svg>