<svg width="352" height="280" fill="none" xmlns="http://www.w3.org/2000/svg"><g clip-path="url(#clip0_955_7886)"><path d="M-319.77-431.828l593.266-58.67c9.393-.929 12.779 12.149 3.978 15.363l-780.062 284.807L558.995-441.495c9.55-2.259 14.4 11.244 5.403 15.043l-784.413 331.21c-8.703 3.675-4.497 16.722 4.883 15.148l500.54-84.006c8.824-1.481 13.422 10.304 5.744 14.72L-34.604 37.984c-7.135 4.104-3.748 15.03 4.597 14.83l298.791-7.175c6.858-.164 10.976 7.674 6.796 12.939L114.879 260.982c-3.52 4.434-1.201 11.092 4.404 12.642l237.726 65.753c4.622 1.279 7.215 6.187 5.58 10.561l-71.498 191.277" stroke="#fff" stroke-opacity=".5" stroke-width="50" stroke-linecap="round"/></g><defs><clipPath id="clip0_955_7886"><path fill="#fff" transform="translate(0 -480)" d="M0 0h352v760H0z"/></clipPath></defs></svg>