<svg width="1400" height="512" fill="none" xmlns="http://www.w3.org/2000/svg"><path opacity=".5" d="M4.968 477l229.467-229.467c3.128-3.128 8.32-3.051 11.513.169l128.241 129.337c4.153 4.188 11.207 2.848 13.255-2.518l89.142-233.585c2.469-6.468 11.675-6.694 14.793-.363l124.763 253.304c3.545 7.196 14.319 5.637 15.245-2.206l58.446-495.03c1.009-8.549 13.237-9.295 15.736-.959l150.753 502.844c2.646 8.826 15.763 7.29 15.789-1.849l1.151-403.243c.021-7.567 9.768-10.572 14.453-4.456l257.515 336.174c2.7 3.517 7.71 4.312 11.24 1.783L1419 139" stroke="#fff" stroke-opacity=".15" stroke-width="70" stroke-linecap="round"/></svg>