<svg width="48" height="48" fill="none" xmlns="http://www.w3.org/2000/svg"><g clip-path="url(#clip0_1225_5946)"><path fill="#E6311F" d="M0 0h48v48H0z"/><path d="M34-4C22.407-4 13 4.064 13 14c0 16 21 38 21 38s21-22 21-38c0-9.936-9.407-18-21-18zm0 28a8.702 8.702 0 01-4.667-1.348 8.098 8.098 0 01-3.094-3.59 7.647 7.647 0 01-.478-4.623 7.89 7.89 0 012.3-4.096 8.538 8.538 0 014.3-2.19 8.79 8.79 0 014.854.456 8.325 8.325 0 013.77 2.946A7.732 7.732 0 0142.4 16c-.002 2.121-.888 4.154-2.463 5.654-1.575 1.5-3.71 2.344-5.937 2.346z" fill="#fff"/></g><defs><clipPath id="clip0_1225_5946"><path fill="#fff" d="M0 0h48v48H0z"/></clipPath></defs></svg>