<svg width="153" height="175" fill="none" xmlns="http://www.w3.org/2000/svg"><path d="M151.9 154.169c.1-.1.2-.4 0-1.3-.3-1.6-1.5-4.4-3.8-8.8-2.3-4.6-9.2-19.5-15.5-33.9-4-9.1-8.4-19.3-11.8-27.2l-.2-.4c-1.8-4.2-3.3-7.7-4.3-9.9-2.9-6.7-5.2-11-7.2-13.1-1-1.1-1.7-1.4-2.2-1.4-.5 0-1 .3-1.5 1-.3.5-.6 1.2-.8 2.3-.2 1.2-.4 2.8-.4 4.9-.1 4.2.1 10.5.8 20.3.3 4.6.3 8.3.1 10.4-.1.5-.1 1-.2 1.3-.1.2-.1.4-.2.5-.1.2-.2.4-.4.6-.3.2-.7.3-1 .2-.3-.1-.5-.2-.7-.4-.2-.2-.4-.5-.5-1-.1-.1-.1-.2-.2-.3-.2-.2-.5-.5-.8-.9-.7-.8-1.7-1.9-3-3.2-2.5-2.6-6.1-6.3-10.6-11-8.4-8.6-19.9-20.2-32.2-32.5-12.3-12.4-23.9-24-32.8-32.7-4.8-4.7-8.6-8.5-11.4-11.2-1.6-1.3-2.8-2.4-3.7-3.3-1.2-1-1.6-1.4-1.7-1.4-1.8-1.3-3.5-2-4.6-1.7-.3 0-.6.3-.8.6-.2.4-.3 1.1-.3 1.9.1 1.1.6 2.6 1.5 4.6.9 2 2.2 4.5 3.9 7.3 3.3 5.5 8 12.6 13.7 20.3 12 16.3 27.4 35 42.2 51v.1c10.8 11.7 16.1 17.5 18.6 20.5.6.7 1.1 1.3 1.4 1.7.4.5.6.8.7 1.1.1.2.1.4.1.6 0 .3-.1.6-.4.9-.2.2-.5.3-.5.3h-.9c-.1 0-.3-.1-.5-.1-.3-.1-.8-.3-1.4-.5-1.1-.4-2.7-1.1-4.7-1.9-4.1-1.7-9.3-3.9-14.6-6.3-7.5-3.3-12.6-5.3-16.1-6.6-1.8-.6-3.1-1-4.1-1.2-.6-.1-1-.2-1.3-.2h-.4c-.6.3-1.1.6-1.3.9-.1.2-.2.4-.2.8 0 .2.2.6.8 1.5.5.7 1.2 1.6 2.1 2.7 1.9 2.1 4.6 4.8 8.2 8 7.2 6.6 17.5 15 30.5 25.2 14.4 11.3 32.3 25.4 39 31.1 6.3 5.3 10.2 8.3 12.5 9.6 1.1.6 1.6.7 1.8.6.1 0 .3-.1.6-.8.2-.4.3-.8.3-1.1 0-.4-.1-.9-.4-1.4-.7-1.3-2.2-3-4.8-5.4-5.5-5.1-16.3-13.5-35.5-28.3-10.1-7.8-19.6-15.3-26.7-21-3.4-2.8-6.1-5-8-6.6-.9-.8-1.7-1.4-2.2-1.9-.3-.2-.5-.4-.6-.6-.1-.1-.2-.2-.2-.3-.1-.1-.1-.2-.1-.3-.1-.3 0-.6.1-.9.2-.3.5-.4.8-.5h.6c.3 0 .7.1 1.2.3.8.3 2 .7 3.4 1.3 2.7 1.2 6.4 2.9 10.4 5 8.8 4.5 17.2 9.4 21.5 12.4 2.3 1.6 3.7 2.5 4.8 2.9.5.2.8.3 1.2.2.3 0 .5-.1.7-.2.4-.3.7-.6.8-1.1.2-.5.2-1.2 0-2-.4-1.8-1.7-4.4-3.9-7.7-4.5-6.6-12.9-16.5-26.5-31.3-11.5-12.3-24-26.6-27.9-31.6l-.1-.1c-6.5-8.3-11.7-15.1-15.1-19.8-1.7-2.3-2.9-4.1-3.6-5.3-.4-.6-.7-1.1-.8-1.5-.1-.2-.2-.4-.2-.7 0-.2 0-.4.1-.6.2-.3.4-.5.8-.6.4 0 .6.1.7.1.1 0 .2.1.3.2.2.1.4.3.7.5.5.4 1.2 1 2.1 1.9 1.7 1.6 4.1 3.8 7 6.7 5.6 5.5 13.4 13.3 22 22 18.8 19.1 36.9 38.1 46.2 48.5 3.5 3.9 6.5 6.9 9 8.9 1.2 1 2.3 1.7 3.2 2.3 1 .6 1.7.8 2.1.8.5 0 .6-.1.7-.2.1-.1.3-.5.4-1.3.1-1.6-.4-4.3-1.5-7.8-1.3-4.3-2.4-11.1-2.9-16-.3-2.9-.5-5.5-.5-7.6 0-1.1 0-2 .1-2.7 0-.4.1-.7.2-1 .1-.4.2-.7.4-.9.1-.2.3-.3.5-.4.2-.1.4-.1.7-.1.3 0 .5.2.7.4.3.2.6.6.9 1.1.6 1 1.3 2.3 2 3.9 14.1 31.3 23 51 27.9 60.7 2.2 4.4 3.8 7.1 5 8.4.4.5.8.8 1.2 1 .2.1.5.1.8.1.6-.2.7-.4.7-.4z" fill="#E6311F"/></svg>