<svg width="180" height="166" fill="none" xmlns="http://www.w3.org/2000/svg"><path d="M105.389 164.5c8.6 4.2 21.2-4.4 49.9-34.2 18.2-18.8 24.7-25.9 24.5-28.3 0-.4-.1-.7-.2-.8-3.4-1.3-28 22.2-39.8 33.5-19.5 18.7-25.7 23.5-28.7 21.9-1.9-1-1.8-4-1.4-7.2.2-3.4 5.9-24.4 10.7-41.4 9.8-35.1 12-44.7 10.8-49.1-.8-3-2.9-5.4-5.8-6.6-2.8-1.2-5.8-1.1-8.4.3-1.7.9-15 11.2-30.4 23.3-7.1 5.6-14 11-19.6 15.1-8.8 6.6-9.1 6.5-9.8 6.1-.5-.3-1.5-.8 2-20.5 5.3-28.8 5.2-35.9-.7-40.2-2.6-2-2.7-2-24.9 4l-23.6 6.4-1.1-5.3c-.6-2.7-.1-12.5.7-20.8.9-9.4 1-17.5.7-18.9-.4-1.2-.7-1.6-.8-1.8-.5.3-2.2 2.3-5.3 14.7-4.5 17.7-5.1 24.2-3.1 31.7 1.1 4.1 2.6 6.4 4.9 7.6 4.4 2.3 12.4.9 29.4-5.2 14.7-5.4 17-5.2 18-4.6 2.5 1.4 2.4 5.7-2.7 34.7-3.7 20.3-3.6 26.9.5 28.5 5.5 2.2 12.7-2.4 45.3-28.6 8.6-6.9 21.9-17.4 23.7-17.9.3-.1.8-.2 1.3-.2s1.1.1 1.6.6c2 2 .7 7.7-10.5 47-12.1 42.2-13.4 53.2-7.2 56.2z" fill="#E6311F"/></svg>