<svg width="79" height="29" fill="none" xmlns="http://www.w3.org/2000/svg"><path d="M56.655 8.009C52.932 3.089 44.98 1.592 39.923 5.96c-.444.383-.856.778-1.234 1.182m17.966.866c3.723 4.92 3.237 12.433-2.467 16.802-5.704 4.369-13.054 2.22-16.592-3.245-3.228-4.985-2.838-10.225 1.093-14.423m17.966.866L77.947 1.52m-51.81 6.253c-2.461-2.632-6.013-4.011-9.589-3.7-3.669.321-7.117 2.588-9.083 5.78m18.672-2.08c1.755 1.876 2.955 4.389 3.215 7.378.623 7.183-5.112 12.282-11.596 12.368-6.485.086-10.904-3.686-11.873-10.319-.388-2.66.265-5.21 1.582-7.347m18.672-2.08l12.552-.63M7.465 9.853L.947 8.95" stroke="#fff" stroke-width="2"/></svg>