<svg width="68" height="61" fill="none" xmlns="http://www.w3.org/2000/svg"><path d="M66.014 53.613l.472 1.424 1.421-.47-.468-1.423-1.425.47zM2.754 46.48l1.392-.557-1.393.557zM42.68 14.301A8 8 0 1031.366 2.988 8 8 0 0042.68 14.3zm16.798 24.257l5.111 15.525 2.85-.939-5.111-15.524-2.85.938zm6.065 13.632l-15.537 5.147.944 2.848 15.536-5.148-.944-2.847zm1.18.101C48.86 42.723 35.388 37.883 25.45 35.996l-.56 2.948c9.534 1.81 22.71 6.507 40.415 15.992l1.417-2.645zM25.45 35.996C15.72 34.15 9.18 35.1 5.262 37.458 1.254 39.87.057 43.776 1.36 47.036l2.786-1.114c-.689-1.724-.249-4.14 2.664-5.894 3.003-1.808 8.668-2.871 18.081-1.084l.56-2.948zM1.36 47.036c1.34 3.354 5.125 5.513 9.8 4.543 4.618-.958 9.996-4.897 15.28-13.311l-2.54-1.596c-5.076 8.082-9.867 11.248-13.35 11.97-3.424.71-5.668-.874-6.405-2.72L1.36 47.036zm25.08-8.768c4.14-6.591 8.289-16.028 12.025-29.215l-2.886-.817C31.895 21.24 27.845 30.392 23.9 36.672l2.541 1.596z" fill="#E6311F"/></svg>