<svg width="138" height="40" fill="none" xmlns="http://www.w3.org/2000/svg"><path d="M9.12 27.724c11.545 5.225 34.571 7.698 66.566 5.137 42.614-3.412 70.075-15.57 58.758-25.558C125.71-.405 91.876-.18 62.097 3.383M9.119 27.724c-3.831-1.734-6.398-3.77-7.608-6.028-4.02-7.493 15.64-17.793 60.586-18.313M9.119 27.724c-5.692-7.088 4.25-15.431 28.367-20.421 7.345-1.52 15.8-2.866 24.61-3.92M9.12 27.724c1.902 2.368 5.548 4.596 10.993 6.512 16.148 5.683 54.338 6.872 88.096.311M62.097 3.383c9.377-.109 19.854.208 31.446 1.065" stroke="#E6311F" stroke-width="2"/></svg>