<svg width="285" height="84" fill="none" xmlns="http://www.w3.org/2000/svg"><path d="M18.776 58.262c23.854 11 71.432 16.206 137.539 10.813 88.047-7.183 144.788-32.778 121.404-53.806C259.674-.956 189.765-.484 128.236 7.017M18.776 58.262c-7.916-3.65-13.22-7.94-15.721-12.691C-5.25 29.795 35.373 8.113 128.236 7.016M18.776 58.262C7.014 43.339 27.558 25.774 77.386 15.27c15.176-3.2 32.647-6.035 50.85-8.254M18.776 58.262c3.93 4.985 11.462 9.675 22.713 13.709 33.365 11.963 112.271 14.466 182.022.655m-95.275-65.61c19.375-.229 41.023.439 64.975 2.242" stroke="#E6311F" stroke-width="3"/></svg>