<svg width="171" height="141" fill="none" xmlns="http://www.w3.org/2000/svg"><path d="M168.391 125.495l.472 1.424 1.421-.471-.468-1.422-1.425.469zM3.19 106.864l1.392-.557-1.392.557zm95.15-93.145A8 8 0 1087.025 2.405 8 8 0 0098.34 13.72zm55.278 71.704l13.348 40.541 2.85-.938-13.348-40.541-2.85.938zm14.301 38.648l-40.572 13.443.943 2.847 40.573-13.442-.944-2.848zm1.18.101C122.58 99.252 87.636 86.728 62.012 81.864l-.56 2.947c25.222 4.788 59.868 17.17 106.231 42.006l1.416-2.645zM62.012 81.864c-25.155-4.775-41.529-2.204-51.023 3.512-9.584 5.771-12.1 14.769-9.192 22.044l2.785-1.113c-2.293-5.739-.534-13.25 7.955-18.36 8.58-5.166 24.078-7.85 48.915-3.136l.56-2.947zM1.797 107.42c3.015 7.545 11.658 12.72 22.858 10.396 11.144-2.312 24.716-11.975 38.347-33.68l-2.54-1.596c-13.423 21.372-26.409 30.262-36.416 32.339-9.95 2.064-17.052-2.537-19.463-8.572l-2.786 1.113zm61.205-23.285C73.655 67.174 84.41 42.76 94.126 8.471l-2.886-.818C81.575 41.76 70.92 65.89 60.462 82.54l2.54 1.595z" fill="#E6311F"/></svg>