<svg width="99" height="78" fill="none" xmlns="http://www.w3.org/2000/svg"><path d="M31 76l.808-18.117M31 76l18.58-6.093M31 76H.5m32.116-36.233L73.492 2c3.765 0 7.748 1.384 11.357 3.614M32.616 39.767l-.808 18.116m.808-18.116c5.129-.393 10.936 1.047 16.378 3.724M68.16 63.815L97 21.125c-.602-2.76-2.011-5.543-3.953-8.098M68.16 63.815l-18.58 6.092m18.58-6.092c-1.181-4.066-3.663-7.964-6.923-11.397m-29.43 5.465s5.362.954 9.856 3.995c4.495 3.04 7.917 8.03 7.917 8.03m11.657-17.49l31.81-39.391m-31.81 39.391c-3.424-3.605-7.707-6.695-12.243-8.927m44.053-30.464c-2.187-2.878-5.05-5.468-8.198-7.413M48.994 43.491L84.849 5.614" stroke="#E6311F" stroke-width="3"/></svg>