<svg width="184" height="65" fill="none" xmlns="http://www.w3.org/2000/svg"><g clip-path="url(#clip0_3_1748)"><path d="M37.56 36.88a6.769 6.769 0 01-11.779-4.206 6.77 6.77 0 0112.88-3.244 6.759 6.759 0 01-1.101 7.45z" fill="url(#paint0_radial_3_1748)"/><path d="M34.31 9.14c.56.56 1.09 1.13 1.56 1.7a26.623 26.623 0 014 6.46c1.605.3 3.239.413 4.87.34h.55A18.56 18.56 0 0057 12l.41-.42a32.72 32.72 0 00-1.94-2.15 32.38 32.38 0 00-42.24-3c9.9-4.82 16.77-1.5 21.08 2.71z" fill="url(#paint1_linear_3_1748)"/><path d="M11.39 42c.2-.77.43-1.51.68-2.2a26.851 26.851 0 013.6-6.69 21 21 0 00-2.14-4.38l-.16-.25-.15-.21A18.54 18.54 0 002.57 21L2 20.83c-.33.9-.63 1.81-.89 2.75A32.38 32.38 0 0019.6 61.67c-9.15-6.2-9.72-13.84-8.21-19.67z" fill="url(#paint2_linear_3_1748)"/><path d="M51.4 45.47c-.77.21-1.53.38-2.26.51a26.74 26.74 0 01-7.59.22 21.004 21.004 0 00-2.72 4c0 .09-.09.17-.13.26a2.6 2.6 0 00-.11.24 18.49 18.49 0 00-1 12.88c0 .19.11.38.17.57.94-.17 1.89-.35 2.83-.6a32.4 32.4 0 0023.72-35.02c-.8 11.03-7.13 15.33-12.91 16.94z" fill="url(#paint3_linear_3_1748)"/><path d="M13.18 6.43A30.63 30.63 0 002.49 19.66a19.329 19.329 0 0114.41 13c.89-.57 3.63-2.74 5.47-8.7 2.23-7.21 6.45-12.53 11.94-14.85 0 .03-6.95-9.86-21.13-2.68z" fill="url(#paint4_linear_3_1748)"/><path d="M35.44 58.34a19.29 19.29 0 015.07-13.05l.05-.07c-.67-.71-3-2.45-9-1.09-7.31 1.67-15.43 1.48-20.17-2.13 0 0-5.1 11 8.21 19.65a30.58 30.58 0 0016.78 2.65 18.453 18.453 0 01-.94-5.96z" fill="url(#paint5_linear_3_1748)"/><path d="M58.2 12.66a19.12 19.12 0 01-14.32 6.49 20.996 20.996 0 01-4.25-.45h-.07c-.28 1-.5 3.85 3.55 8.21 5.13 5.54 9 12.66 8.29 18.57 0 0 12-1.07 12.91-16.94a30.62 30.62 0 00-6.11-15.88z" fill="url(#paint6_linear_3_1748)"/><path d="M79.24 40.54h-3.37V24.83h5.41c4 0 6.44 1.64 6.44 5.25 0 3.61-2.56 5.55-6.72 5.55h-1.76v4.91zm-.07-7.88H81c2 0 3.23-.78 3.23-2.44S83.1 27.8 81 27.8h-1.83v4.86zm11 .03c0-5.28 3.21-8.13 7.54-8.13 4.85 0 7.66 3.08 7.66 8.13 0 5.59-3.26 8.12-7.57 8.12-4.55 0-7.63-2.81-7.63-8.12zm11.63 0c0-3.57-1.64-5.16-4.09-5.16-2.22 0-4 1.66-4 5.16s1.82 5.16 4.18 5.16c2.36 0 3.91-1.64 3.91-5.16zm18.55 7.22a8.33 8.33 0 01-4.25.9c-4.8 0-8-2.76-8-7.92 0-5.41 3.16-8.33 8.3-8.33a9.942 9.942 0 014 .74l-.74 2.83a9.607 9.607 0 00-2.74-.47c-3.1 0-5.21 1.55-5.21 5 0 3.32 2 5 5.19 5a7.93 7.93 0 002.78-.6l.67 2.85zm12.32-3.56H126l-1.52 4.19h-2l6-15.71h2l5.88 15.71h-2.11l-1.58-4.19zm-6.06-1.84H132l-2.62-7.39h-.09l-2.68 7.39zm16.69 6.03h-2V26.72h-4.65v-1.89h11.31v1.89h-4.66v13.82zm6.78-7.85c0-5 2.9-8.08 7-8.08 4.67 0 7.18 3.32 7.18 8.08 0 5.34-3 8.08-7.11 8.08-4.31 0-7.07-3.1-7.07-8.08zm12.08 0c0-4.31-1.93-6.2-5-6.2-2.76 0-4.89 2-4.89 6.2s2.06 6.19 5.16 6.19c2.91 0 4.73-2.13 4.73-6.19zm21.66 7.85h-2l-1-12.27-4 12.27h-2.11l-3.94-12.23-1 12.23h-2l1.34-15.71h2.47l4.24 13.51L180 24.83h2.47l1.35 15.71z" fill="#1A1A1A"/></g><defs><linearGradient id="paint1_linear_3_1748" x1="23.27" y1="2.177" x2="51.724" y2="13.632" gradientUnits="userSpaceOnUse"><stop stop-color="#4495D1"/><stop offset="1" stop-color="#15256D"/></linearGradient><linearGradient id="paint2_linear_3_1748" x1="10.904" y1="55.078" x2="6.607" y2="24.712" gradientUnits="userSpaceOnUse"><stop stop-color="#4495D1"/><stop offset="1" stop-color="#15256D"/></linearGradient><linearGradient id="paint3_linear_3_1748" x1="62.975" y1="39.364" x2="38.828" y2="58.279" gradientUnits="userSpaceOnUse"><stop stop-color="#4495D1"/><stop offset="1" stop-color="#15256D"/></linearGradient><linearGradient id="paint4_linear_3_1748" x1="11.88" y1="23.95" x2="24.67" y2="4.32" gradientUnits="userSpaceOnUse"><stop stop-color="#4495D1"/><stop offset="1" stop-color="#15256D"/></linearGradient><linearGradient id="paint5_linear_3_1748" x1="36.08" y1="51.93" x2="13.14" y2="54.27" gradientUnits="userSpaceOnUse"><stop stop-color="#4495D1"/><stop offset="1" stop-color="#15256D"/></linearGradient><linearGradient id="paint6_linear_3_1748" x1="50.85" y1="18.75" x2="55.52" y2="42.36" gradientUnits="userSpaceOnUse"><stop stop-color="#4495D1"/><stop offset="1" stop-color="#15256D"/></linearGradient><radialGradient id="paint0_radial_3_1748" cx="0" cy="0" r="1" gradientUnits="userSpaceOnUse" gradientTransform="translate(30.429 27.558) scale(9.5077)"><stop stop-color="#4495D1"/><stop offset="1" stop-color="#15256D"/></radialGradient><clipPath id="clip0_3_1748"><path fill="#fff" d="M0 0h183.82v64.56H0z"/></clipPath></defs></svg>