<svg width="176" height="57" fill="none" xmlns="http://www.w3.org/2000/svg"><path d="M127.454 4.031h-4.097v27.883h4.097V4.031zm6.931 22.847a2.763 2.763 0 00-2.767 2.769 2.763 2.763 0 002.767 2.77 2.762 2.762 0 002.767-2.77 2.762 2.762 0 00-2.767-2.77zm10.77-4.67c0-3.326 1.994-6.177 5.86-6.177h2.441V12.15h-2.441c-3.025 0-4.409.964-5.819 2.566l-.027.04V12.15h-4.056V31.9h4.042v-9.692zm-26.247-10.059h-4.096V31.9h4.096V12.15zm-2.048-3.272a2.77 2.77 0 000-5.539 2.763 2.763 0 00-2.767 2.77 2.771 2.771 0 002.767 2.77zm-10.512 5.268c-1.573-1.602-3.988-2.498-6.389-2.498-5.724 0-10.376 4.656-10.376 10.385 0 5.728 4.652 10.384 10.376 10.384 2.401 0 4.938-1.031 6.389-2.66v2.158h4.029V12.149h-4.029v1.996zm-6.253 14.145c-3.527 0-6.213-2.715-6.213-6.258 0-3.544 2.686-6.231 6.213-6.231s6.307 2.525 6.307 6.23c0 3.706-2.78 6.259-6.307 6.259zm64.701 4.126c1.831 0 4.164-.99 5.629-2.674.014.746 0 1.425 0 2.158h4.029V12.15h-4.042v10.846c0 2.81-2.144 5.43-5.358 5.43-2.808 0-4.802-2.036-4.802-4.955V12.163h-4.042V23.81c.014 5.213 2.821 8.606 8.586 8.606zM77.755 11.647c-2.686 0-5.317 1.221-6.918 3.15-1.465-1.942-3.594-3.15-6.457-3.15-2.332 0-4 1.045-4.896 1.887v-1.385h-4.029V31.9h4.029V20.348a4.676 4.676 0 014.666-4.67c2.564 0 4.666 2.105 4.666 4.67V31.9h4.029V20.348a4.676 4.676 0 014.666-4.67c2.563 0 4.666 2.105 4.666 4.67V31.9h4.028V20.348c.027-5.294-3.404-8.701-8.45-8.701zm53.198 29.389l-.027.027V39.53h-2.577v11.593h2.577v-5.43c0-1.954 1.167-3.624 3.432-3.624h1.424V39.53h-1.424c-1.763 0-2.577.57-3.405 1.506zm27.712 4.846c0 1.86-1.492 2.973-2.943 2.973-1.533 0-2.618-1.113-2.618-2.701v-6.611h-2.591v6.801c0 3.217 1.845 5.077 5.046 5.077 1.044 0 2.279-.53 3.092-1.33v1.045h2.578V39.543h-2.591l.027 6.34zm-16.168-6.638c-3.351 0-6.077 2.729-6.077 6.082a6.086 6.086 0 006.077 6.081c3.35 0 6.076-2.728 6.076-6.081a6.078 6.078 0 00-6.076-6.082zm0 9.584a3.51 3.51 0 01-3.5-3.502 3.51 3.51 0 013.5-3.502 3.51 3.51 0 013.499 3.502 3.5 3.5 0 01-3.499 3.502zm27.426-9.584c-1.329 0-2.618.462-3.526 1.25v-.965h-2.578v15.584h2.578v-5.022c.868.814 2.21 1.33 3.526 1.33A6.086 6.086 0 00176 45.34c0-3.367-2.726-6.096-6.077-6.096zm-.081 9.53c-2.021 0-3.486-1.453-3.486-3.448 0-1.996 1.465-3.434 3.486-3.434 1.953 0 3.432 1.48 3.432 3.434 0 1.968-1.479 3.448-3.432 3.448zm-46.634-8.281c-.909-.787-2.197-1.249-3.526-1.249-3.351 0-6.077 2.729-6.077 6.082a6.086 6.086 0 006.077 6.081c1.315 0 2.658-.515 3.526-1.33v.23c-.04 2.377-1.193 3.585-3.445 3.585h-.027c-1.275 0-2.401-.49-3.445-1.507l-.095-.095-1.872 1.792.081.095c.963 1.126 2.916 2.416 5.263 2.416h.122c2.198-.04 5.887-.896 5.995-6.19V39.516h-2.577v.977zm-3.445 8.28c-1.953 0-3.432-1.479-3.432-3.447 0-1.955 1.479-3.434 3.432-3.434 2.021 0 3.486 1.438 3.486 3.434-.014 1.995-1.465 3.448-3.486 3.448z" fill="#333"/><path d="M28.327 21.678a6.515 6.515 0 01-6.51 6.516 6.515 6.515 0 01-6.512-6.515 6.515 6.515 0 016.511-6.516c3.595 0 6.51 2.932 6.51 6.515zM21.817.027C9.88.027.166 9.747.166 21.692c0 11.946 9.713 21.652 21.65 21.652 4.367 0 8.585-1.303 12.193-3.774l.068-.04-2.916-3.394-.054.027a17.196 17.196 0 01-9.292 2.728c-9.481 0-17.2-7.724-17.2-17.212 0-9.49 7.719-17.213 17.2-17.213 9.482 0 17.2 7.724 17.2 17.212 0 1.236-.136 2.471-.407 3.706-.543 2.24-2.103 2.919-3.283 2.824-1.18-.095-2.564-.937-2.577-3v-3.53c0-6.04-4.91-10.954-10.946-10.954-6.037 0-10.947 4.914-10.947 10.954 0 6.041 4.91 10.955 10.947 10.955 2.93 0 5.683-1.154 7.758-3.23a7.043 7.043 0 005.412 3.23c.19.014.394.027.584.027a7.348 7.348 0 004.394-1.48c1.303-.99 2.266-2.415 2.795-4.126.081-.271.244-.91.244-.91v-.026c.312-1.372.461-2.743.461-4.44C43.465 9.746 33.753.027 21.816.027z" fill="#FC2C38"/></svg>