<svg width="214" height="40" fill="none" xmlns="http://www.w3.org/2000/svg"><path d="M31.663 30.856c0 5.235-2.865 7.54-8.269 7.54H1.548l1.356-5.019h20.343c1.771 0 2.705-.495 2.705-2.521v-.56c0-2.027-.934-2.522-2.705-2.522H9.385c-5.404 0-8.267-2.305-8.267-7.54v-.229c0-5.236 2.863-7.54 8.267-7.54h21.153l-1.356 5.017H9.535c-1.774 0-2.708.497-2.708 2.523v.229c0 2.026.934 2.523 2.708 2.523h13.86c5.403 0 8.268 2.304 8.268 7.538v.561zm33.915 7.54l-1.355-5.019h-18.33c-1.82 0-3.145-.836-3.145-2.969v-9.956c0-2.134 1.326-2.97 3.145-2.97h18.179l1.358-5.017H45.745c-5.593 0-8.708 2.534-8.708 7.987v9.956c0 5.452 3.114 7.988 8.709 7.988h19.832zm30.108-10.98H76.354v10.98h-5.712v-25.93h5.712V22.49h19.332V12.465h5.712v25.931h-5.712v-10.98zm79.125 10.98l-1.356-5.019h-18.329c-1.82 0-3.145-.836-3.145-2.969v-9.956c0-2.134 1.325-2.97 3.145-2.97h18.178l1.359-5.017h-19.687c-5.592 0-8.707 2.534-8.707 7.987v9.956c0 5.452 3.115 7.988 8.707 7.988h19.835zm-66.739-7.988V12.465h5.711v17.943c0 2.133 1.325 2.97 3.145 2.97h14.381c1.819 0 3.144-.837 3.144-2.97V12.465h5.71v17.943c0 5.452-3.111 7.988-8.707 7.988h-14.678c-5.594 0-8.706-2.536-8.706-7.988zm99.099 0c0 2.133-1.325 2.97-3.145 2.97H187.66c-1.818 0-3.143-.837-3.143-2.97v-9.956c0-2.134 1.325-2.97 3.143-2.97h16.366c1.82 0 3.145.837 3.145 2.97v9.956zm-2.997 7.988c5.594 0 8.708-2.536 8.708-7.988v-9.956c0-5.453-3.114-7.987-8.708-7.987h-16.662c-5.594 0-8.706 2.534-8.706 7.987v9.956c0 5.452 3.112 7.988 8.706 7.988h16.662zM119.82 1.604h8.595l-1.806 7.137h-4.982l-1.807-7.137zm11.745 0l-2.284 7.137h5.172l4.429-7.137h-7.317zm-22.213 0h7.318l2.284 7.137h-5.171l-4.431-7.137z" fill="#363C46"/></svg>