<svg width="174" height="64" fill="none" xmlns="http://www.w3.org/2000/svg"><path d="M86.826 16.413c-6.28 0-11.454 2.117-15.45 6.28-4.033 4.163-5.996 9.385-5.996 15.665 0 6.28 1.999 11.539 6.138 15.738 4.068 4.163 9.456 6.28 16.236 6.28 7.78 0 13.703-2.957 17.735-8.909l-8.457-5.002c-2.07 2.775-5.103 4.162-9.1 4.162-6.208 0-10.062-2.592-11.454-7.85h30.689c.285-1.534.392-3.068.392-4.419 0-6.207-1.963-11.429-5.817-15.665-4.032-4.163-8.956-6.28-14.916-6.28zM76.193 34.488c.642-2.703 1.784-4.71 3.64-6.208 1.855-1.46 4.21-2.19 7.03-2.19 2.426 0 4.495.693 6.35 2.044 1.857 1.424 3.106 3.542 3.748 6.28l-20.769.074zm55.81-18.075c-5.995 0-11.098 2.117-15.237 6.353-4.14 4.236-6.209 9.458-6.209 15.592 0 6.135 2.069 11.357 6.209 15.592 4.139 4.236 9.206 6.354 15.237 6.354 6.03 0 11.098-2.118 15.308-6.354 4.211-4.236 6.281-9.42 6.281-15.592 0-6.17-2.07-11.356-6.281-15.592-4.21-4.235-9.313-6.353-15.308-6.353zm7.922 30.234c-2.141 2.191-4.782 3.25-7.922 3.25-3.176 0-5.817-1.059-7.886-3.25-2.07-2.19-3.105-4.93-3.105-8.252 0-3.323 1.035-6.062 3.105-8.253 2.069-2.19 4.674-3.25 7.886-3.25 3.176 0 5.816 1.06 7.922 3.25 2.141 2.191 3.176 4.93 3.176 8.253-.107 3.286-1.035 6.061-3.176 8.252zM34.798 34.78a22.88 22.88 0 007.78-17.126H32.086c-.035 6.5-5.245 11.83-11.633 11.83V3.743H9.641v55.612h10.777V41.462c9.67 0 17.52 8.033 17.628 17.892h10.49c-.07-10.407-5.566-19.572-13.738-24.574zM62.311 3.705H51.535v55.65H62.31V3.704z" fill="#283482"/><path d="M158.445 60.304c3.311 0 5.995-2.747 5.995-6.135s-2.684-6.134-5.995-6.134-5.995 2.746-5.995 6.134c0 3.388 2.684 6.135 5.995 6.135z" fill="#60BC9F"/></svg>