<svg width="180" height="42" fill="none" xmlns="http://www.w3.org/2000/svg"><path fill-rule="evenodd" clip-rule="evenodd" d="M22.653 29.083c-.164 2.682-2.67 3.575-3.56 3.575H9.63v-7.719h9.305c.482 0 3.719.733 3.719 4.144zm10.758.895c0-8.289-6.31-9.506-6.31-9.506s4.53-2.193 4.53-7.717c0-9.018-7.685-11.698-10.76-11.698H0v39.806h22.328c4.127 0 11.083-4.224 11.083-10.886zm-12.134-16.9c0 2.518-2.344 3.819-3.235 3.819H9.628V9.343h7.684c.89 0 3.965.894 3.965 3.736zm42.31 7.88c0 5.77-3.237 11.374-8.738 11.374-5.582 0-8.818-5.605-8.818-11.374 0-5.524 3.236-11.048 8.818-10.885 5.503 0 8.738 5.523 8.738 10.885zm9.79 0C73.377 9.911 65.934.57 54.85.57c-11.245 0-18.77 9.343-18.77 20.39C36.245 32.333 43.605 42 54.852 42c11.082 0 18.685-9.667 18.526-21.04zm33.975 7.962c0-16.167-21.842-9.343-20.548-16.898.487-2.843 3.399-3.25 5.907-3.25 4.285 0 7.28 3.412 7.28 3.412l5.905-6.255C101.448 1.787 98.212 0 91.982 0 83.973 0 76.61 5.036 76.61 13.241c0 11.537 12.702 11.537 17.153 12.917 2.669.731 3.397 1.462 3.234 3.25 0 1.95-3.073 3.818-5.177 3.818-4.53.324-7.2-2.031-10.353-5.2L75.4 34.607c5.5 5.363 10.354 7.393 16.42 7.23 7.846-.243 15.531-4.712 15.531-12.917zm37.134 3.576l-8.009-5.038s-3.236 4.874-6.959 4.874c-5.905.164-9.14-5.768-9.14-11.535 0-5.687 2.993-10.724 8.576-10.724 3.237 0 5.501 1.95 6.957 4.631l7.684-5.036c-1.294-1.948-4.287-8.936-14.077-9.26-10.597-.244-19.011 9.666-19.011 20.39 0 11.535 6.795 20.634 19.335 20.634 6.392.161 11.408-3.9 14.644-8.936zM180 40.863V1.056h-9.952v14.946h-12.133V1.056h-10.193v39.806h9.95V24.939h12.376v15.924H180z" fill="#CC212F"/></svg>