<svg width="196" height="44" fill="none" xmlns="http://www.w3.org/2000/svg"><path d="M132.023.957c-11.94 0-19.865 9.252-19.865 21.03 0 12.452 8.033 21.012 19.865 21.012 11.606 0 19.824-8.945 19.824-21.022 0-12.076-8.219-21.02-19.824-21.02zm-67.976.03c-3.792 0-8.592 1.36-12.123 4.386-4.212 3.61-7.473 9.258-7.473 16.856 0 6.552 2.038 11.83 5.714 15.403 3.599 3.5 8.689 5.412 15 5.412 5.081 0 11.217-1.998 13.85-3.694.92-.593 1.21-.847.97-1.817l-1.643-4.849c-.19-.795-1.037-.999-1.725-.643-1.156.592-2.018 1.058-3.19 1.508-2.275.876-4.63 1.474-6.87 1.474-4.719 0-7.402-1.337-9.457-3.802-1.305-1.566-2.07-3.55-2.307-5.844h26.038c.948 0 1.37-.682 1.37-1.836v-1.955c0-.952-.042-2.447-.12-3.342-.478-5.462-2.407-9.857-5.625-12.835-3.1-2.873-7.263-4.423-12.409-4.423zm42.451.038c-7.518 0-12.11 1.797-15.056 5.755-2.257 3.035-2.665 6.43-2.662 13.692v19.933c.103 1.42.652 2.085 1.926 2.085h5.948c1.376 0 1.938-.748 1.938-2.085V20.1c0-4.574.054-7.127 1.598-8.853 1.328-1.485 3.109-2.456 6.846-2.456.741 0 2.516.203 3.135.282.234.03.425.049.526.049.644 0 .868-.244 1.075-1.098l.892-4.57c.165-.937.028-1.665-.868-1.887-1.362-.335-3.531-.542-5.298-.542zm-98.652.543c-.647 0-1.112.537-.846 1.445 1.773 6.033 6.268 13.195 10.93 19.075-5.94 5.575-10.094 12.991-12.179 18.95-.307.877.17 1.45.638 1.45h7.01c1.009 0 1.472-.374 1.934-1.442 1.895-4.362 4.709-9.394 8.399-13.476 3.382 3.393 6.342 8.554 8.24 13.476.53 1.36 1.145 1.442 1.94 1.442h7.642c1.463 0 1.592-.827 1.33-1.547-2.916-8.006-9.117-16.177-12.616-19.629 3.204-3.562 9.01-10.442 11.547-18.3.374-1.155-.317-1.444-.89-1.444h-6.399c-.776 0-1.294.283-1.868 1.445-3.447 6.772-6.55 10.765-7.885 12.205-2.105-2.604-4.873-7.288-6.898-12.205-.44-1.067-.905-1.445-1.795-1.445H7.846zm147.353 0c-.644 0-1.11.537-.845 1.445 1.771 6.033 6.267 13.195 10.929 19.075-5.939 5.575-10.093 12.991-12.177 18.95-.308.877.172 1.45.639 1.45h7.008c1.008 0 1.471-.374 1.933-1.442 1.895-4.362 4.708-9.394 8.399-13.476 3.384 3.393 6.344 8.554 8.238 13.476.536 1.36 1.15 1.442 1.942 1.442h7.643c1.461 0 1.592-.827 1.33-1.547-2.918-8.006-9.119-16.177-12.613-19.629 3.201-3.562 9.009-10.442 11.545-18.3.374-1.155-.317-1.444-.891-1.444h-6.397c-.777 0-1.297.283-1.871 1.445-3.445 6.772-6.548 10.765-7.883 12.205-2.107-2.604-4.875-7.288-6.901-12.205-.438-1.067-.906-1.445-1.794-1.445h-8.234zm-23.17 7.087c6.951 0 9.57 6.264 9.57 13.324 0 7.063-2.619 13.331-9.57 13.33-6.954 0-9.633-6.267-9.633-13.33 0-7.059 2.679-13.324 9.633-13.324zm-67.656.036c5.2 0 8.378 3.68 8.378 9.143v.247H54.778a13.27 13.27 0 011.151-3.874c1.602-3.367 4.658-5.516 8.444-5.516z" fill="#D40E2A"/></svg>