<svg width="164" height="106" fill="none" xmlns="http://www.w3.org/2000/svg"><g clip-path="url(#clip0_3_1808)"><path d="M83.869 77.976h6.459v-34.6h-6.459v34.6zm-7.747 0h6.457v-42.29h-6.457v42.29zm-7.747 0h6.457v-34.6h-6.457v34.6z" fill="#D9BB6C"/><path d="M105.817 39.527l-6.452 6.407V24.13h6.458m-7.749 23.083l-6.457 6.412v-37.19h6.457M83.87 42.093h6.46V8.762h-6.46v33.332zm-7.748-7.69h6.456V1.078H76.12v33.326zm-7.746 7.69h6.454V8.762h-6.454v33.332zm-1.293 11.53l-6.457-6.411V16.434h6.457M52.88 24.131v15.396l6.454 6.41V24.13M16.95 85.87c3.231 0 5.872 2.581 5.872 5.734v1.231c0 2.682-1.912 4.947-4.467 5.566l5.316 6.52h-7.676l-5.18-6.351H7.677v6.351H0V85.873l16.95-.002zm-9.273 8.254h6.522c.969 0 1.762-.774 1.762-1.72v-.367c0-.95-.79-1.72-1.762-1.72H7.677m47.376 14.601H65.93c3.343 0 6.08-2.712 6.08-6.03 0-3.32-2.737-6.033-6.08-6.033h-7.602a1.04 1.04 0 01-.73-.3 1.025 1.025 0 01-.304-.723v-.492c0-.563.464-1.024 1.034-1.024h4.969c.569 0 1.033.46 1.033 1.024v.243H72c-.17-3.17-2.835-5.712-6.07-5.712H55.052c-3.34 0-6.077 2.713-6.077 6.032 0 3.318 2.737 6.031 6.077 6.031h7.606c.567 0 1.033.461 1.033 1.026v.49a1.027 1.027 0 01-.304.724c-.194.192-.456.3-.73.302h-4.971a1.042 1.042 0 01-.73-.302 1.024 1.024 0 01-.303-.724v-.244h-7.669c.168 3.168 2.835 5.712 6.068 5.712zm34.869.002h7.675V85.872h-7.675v10.98l-8.958-10.98h-7.676v19.049h7.677v-10.98m40.228 10.978h7.678v-6.986h11.503v-5.078l-11.503-.032v-1.872h12.942v-5.079h-20.62M23.676 95.37c0 6.24 4.108 9.552 12.224 9.552 8.115 0 12.224-3.312 12.224-9.552s-4.109-9.497-12.224-9.497c-8.116 0-12.224 3.257-12.224 9.497zM35.9 90.316c2.494 0 4.532 1.722 4.532 3.832v2.497c0 2.107-2.038 3.833-4.532 3.833-2.492 0-4.533-1.726-4.533-3.833v-2.497c0-2.11 2.04-3.832 4.533-3.832zm63.192 14.605h21.248v-5.08h-13.572v-1.906h11.502v-5.079l-11.502-.031V90.95h12.943v-5.079H99.092m50.498 19.049h7.679V90.95H164v-5.078h-21.334v5.078h6.924" fill="#000"/></g><defs><clipPath id="clip0_3_1808"><path fill="#fff" d="M0 0h164v106H0z"/></clipPath></defs></svg>