<svg width="232" height="40" fill="none" xmlns="http://www.w3.org/2000/svg"><path fill-rule="evenodd" clip-rule="evenodd" d="M17.54 14.46c-.92 1.069-1.915 2.351-1.915 4.273 0 3.597 2.138 6.41 5.97 6.41 5.087 0 6.081-5.02 6.081-7.407a6.87 6.87 0 00-.046-.798c1.35-.2 2.696-.746 3.96-1.543l.006.003c.062 2.391.133 4.706.133 5.757-.036 3.313.22 3.706 1.29 3.706 1.141 0 1.769-2.245 2.838-4.382 1.254-2.67 2.58-5.342 3.39-5.342 1.512 0-1.216 9.866 2.432 9.864 2.58 0 6.413-10.007 8.072-10.007 1.29 0-1.328 10.01 1.547 10.007 2.101 0 5.676-10.185 6.893-10.185 1.253 0-1.327 10.185 2.395 10.185 3.355 0 6.082-8.369 7.003-8.369.443 0 1.273 1.121 1.864 2.657l-.004.041c-1.163 1.402-1.896 2.746-1.896 3.75 0 1.282 1.033 1.922 2.064 1.922 1.549 0 3.059-1.601 3.059-3.916 0-.484-.042-1.867-.605-3.252l.002-.014c2.317-2.075 5.313-3.884 7.126-4.179-1.032 1.14-2.912 2.137-2.912 5.379 0 3.49 2.764 6.16 6.302 6.16 4.975 0 6.044-5.127 6.044-7.121a6.9 6.9 0 00-.269-1.965l-.005.008c1.69-.77 2.968-1.854 3.444-1.854 1.033 0 .627 3.027.627 6.163 0 2.35-.37 4.77 1.438 4.77 1.364 0 2.026-2.599 3.39-4.914 1.327-2.28 2.764-5.38 3.317-5.38.738 0 .443 4.774.443 5.7 0 1.175-.222 4.878 2.284 4.878 1.695 0 4.865-4.595 4.865-5.199 0-.321 0-.393-.258-.393s-2.212 3.099-2.986 3.099c-1.106 0-.406-3.954-.406-6.874 0-1.282.184-4.13-2.027-4.13-2.801 0-5.528 7.621-6.376 7.621-.812-.001 1.179-7.337-2.322-7.337-1.424 0-3.54 1.869-5.85 2.829l.013.004c-.85-1.613-2.377-2.44-3.855-2.44-1.07 0-1.88.783-1.88 1.601 0 1.104.921 2.6 3.059 2.6.588 0 1.16-.093 1.705-.241l.025.01c.193.605.3 1.212.299 1.692 0 1.887-1.326 4.344-3.87 4.344-1.99 0-3.76-2.029-3.76-4.523 0-4.061 2.544-4.737 2.544-5.557 0-.356-.295-.426-.848-.426-2.842 0-6.75 2.27-9.684 4.888l-.011-.003a5.907 5.907 0 00-.33-.505c-2.838-3.918-1.732-4.772-2.469-4.772-.921 0-5.05 10.863-6.671 10.863-2.138 0 1.77-10.471-2.395-10.471-3.28 0-5.16 8.227-6.413 8.227-1.215 0 1.216-8.227-2.322-8.227-2.542 0-6.34 9.83-7.997 9.83-1.4 0 1.29-9.687-1.954-9.687-3.096 0-5.528 7.586-6.302 7.586-.647 0-.508-2.37-.482-6.717l.011-.03c2.539-2.636 4.304-6.248 4.306-9.67 0-1.602-.811-2.85-2.359-2.848-3.022 0-4.792 4.63-4.792 9.722 0 1.111.026 2.529.061 3.985l-.009.018c-1.402.997-2.723 1.518-3.48 1.518l-.681.004.001.001c-.697-2.195-2.57-3.174-3.926-3.174-1.069 0-1.916.96-1.916 1.78 0 1.208 1.11 2.486 4.608 2.56l.008.007c.088.41.135.825.139 1.243 0 1.888-1.438 4.453-3.98 4.453-2.212 0-3.87-2.422-3.87-5.094 0-3.419 2.358-4.488 2.358-4.737 0-.143-.037-.285-.11-.285-2.34 0-6.157 2.49-9.754 6.104l-.007-.001c-.406-2.991-.891-6.525-.891-10.661 0-5.984 1.143-6.766 1.143-7.55 0-.356-.11-.5-.738-.5C9.066.002 0 3.956 0 12.717c0 6.739 3.837 9.734 6.308 11.552-2.65 3.803-4.538 7.983-4.538 11.635C1.77 37.969 2.618 40 4.2 40c2.507 0 7.297-5.13 7.298-15.635 0-1.381-.184-2.954-.421-4.733v-.006c2.147-2.19 4.449-3.995 6.463-5.166zm192.796 1.065l.005-.013c-.468-.872-1.131-1.55-1.929-1.55-.368 0-.699.356-.699.642 0 .64.628 1.033 1.584 1.033a5.24 5.24 0 001.039-.112zm-79.724 8.028c.463-.634.948-1.255 1.444-1.86l.026-.057c-.605-3.106-1.25-6.102-1.25-8.316 0-6.303 2.838-10.791 2.838-11.754 0-.64.112-.747-.368-.747-.332 0-6.818 2.67-6.818 12.11.001 3.804 1.834 8.461 4.128 10.624zm-.51.716c-.916-.673-1.766-1.828-3.065-2.685-1.095-.725-3.982.061-6.485.499l-.005.005c-.219 1.395-.715 2.773-1.212 2.773-.325 0-.467-1.105-.874-2.387l-.025-.017c-1.118.194-2.066.337-2.64.337-1.732 0-5.713-.75-5.713-3.277 0-1.424 1.659-1.994 3.244-1.994 1.806 0 4.68 1.246 5.381 2.6.183-2.422-1.624-3.74-1.624-4.132 0-.391 1.955-1.103 2.14-1.103.775 0 1.438 3.419 1.438 5.842 0 .115-.005.231-.01.353v.003c1.984-.384 4.117-.789 5.501-.607-1.327-1.816-2.323-4.31-2.323-7.764C123.83 3.954 132.859 0 134.26 0c.627 0 .775.143.775.5 0 .783-1.18 1.567-1.18 7.55 0 4.139.485 7.676.892 10.669 3.599-3.617 7.418-6.11 9.761-6.11.073 0 .109.142.109.284 0 .25-2.359 1.319-2.356 4.738-.003 2.671 1.692 5.093 3.903 5.093 2.506 0 3.946-2.566 3.946-4.453 0-.374-.048-.807-.14-1.249l-.002-.002c-3.502-.075-4.612-1.351-4.612-2.561 0-.82.848-1.781 1.952-1.781 1.327 0 3.192.979 3.89 3.173l.681-.003c.757 0 2.08-.523 3.485-1.522l.003-.009a183.06 183.06 0 01-.061-3.99c0-5.094 1.771-9.723 4.791-9.724 1.547 0 2.358 1.247 2.358 2.85 0 3.421-1.766 7.034-4.304 9.67l-.013.026c-.024 4.351-.164 6.723.485 6.723.773 0 3.205-7.586 6.302-7.586 3.243 0 .589 9.687 1.952 9.687 1.66 0 5.454-9.83 7.998-9.83 3.539 0 1.107 8.226 2.322 8.226 1.253 0 3.131-8.227 6.411-8.227 4.166 0 .26 10.472 2.399 10.472 1.621 0 5.748-10.864 6.67-10.864.737 0-.368.855 2.468 4.772.121.166.231.333.33.506l.015.002c2.937-2.617 6.854-4.89 9.717-4.89.516 0 .811.073.811.429 0 .818-2.544 1.495-2.544 5.556 0 2.493 1.771 4.522 3.759 4.522 2.544 0 3.87-2.458 3.87-4.344 0-.48-.104-1.085-.297-1.69l-.018-.008a6.323 6.323 0 01-1.676.237c-2.173 0-3.095-1.497-3.095-2.6 0-.819.811-1.601 1.88-1.601 1.474 0 2.998.824 3.85 2.429l.007.001c2.303-.962 4.414-2.822 5.835-2.822 3.502 0 1.512 7.338 2.323 7.338.884 0 3.575-7.622 6.375-7.622 2.211 0 2.027 2.848 2.027 4.13 0 2.922-.699 6.875.407 6.875.773 0 2.727-3.1 2.984-3.1.259 0 .295.074.295.394 0 .604-3.171 5.198-4.902 5.198-2.506 0-2.284-3.703-2.284-4.877 0-.927.292-5.7-.443-5.7-.552 0-1.99 3.1-3.318 5.38-1.362 2.315-2.025 4.913-3.388 4.913-1.807 0-1.439-2.42-1.439-4.77 0-3.134.404-6.163-.625-6.163-.477 0-1.756 1.086-3.435 1.854l-.002.005c.17.58.266 1.23.266 1.952 0 1.994-1.067 7.122-6.045 7.122-3.537 0-6.302-2.671-6.302-6.16 0-3.242 1.88-4.24 2.95-5.38-1.834.297-4.836 2.103-7.156 4.179l-.008.021c.562 1.383.603 2.762.603 3.246 0 2.316-1.512 3.92-3.06 3.917-1.031 0-2.063-.639-2.063-1.922 0-1.007.737-2.355 1.906-3.76v-.013c-.592-1.546-1.424-2.674-1.87-2.674-.92 0-3.611 8.369-7.002 8.369-3.722 0-1.143-10.185-2.395-10.185-1.216 0-4.791 10.185-6.854 10.185-2.912 0-.295-10.007-1.586-10.007-1.657 0-5.491 10.007-8.071 10.007-3.647 0-.922-9.864-2.432-9.864-.811 0-2.139 2.671-3.39 5.342-1.07 2.137-1.695 4.382-2.838 4.382-1.068 0-1.291-.393-1.291-3.706 0-1.05-.071-3.365-.133-5.754l-.005-.006c-1.265.795-2.607 1.34-3.955 1.542l-.005.007c.029.252.046.517.046.792 0 2.386-.995 7.407-6.081 7.407-3.834 0-5.934-2.813-5.934-6.41 0-1.922.959-3.205 1.88-4.273-2.013 1.17-4.312 2.972-6.457 5.155l-.007.03c.234 1.773.421 3.34.421 4.717 0 10.505-4.754 15.636-7.298 15.636-1.586 0-2.434-2.032-2.434-4.096-.001-3.65 1.887-7.832 4.538-11.633zm63.483-3.967h-.01c-.628.875-1.009 1.714-1.009 2.422 0 .712.147 1.14.591 1.14.404 0 .773-.501.773-1.177a9.05 9.05 0 00-.345-2.385zM158.141 11.7c1.56-1.947 2.765-4.544 2.765-7.71 0-1.497-.111-2.352-.92-2.352-2.077 0-1.869 7.436-1.845 10.062zm-8.559 4.124l.005-.01c-.394-.894-1.014-1.603-1.873-1.603-.37 0-.591.214-.591.498.001.792 1.168 1.042 2.459 1.115zm-17.315 6.772l-.01-.003c-2.846 3.615-4.963 7.817-4.963 11.81 0 1.321 0 3.28 1.88 3.28 2.323 0 3.946-3.35 3.946-8.016 0-2.168-.396-4.633-.853-7.071zM118.1 21.54l.015-.022c-.642-1.51-1.768-2.962-4.05-2.962-.626 0-.959.534-.959 1.176 0 1.175 1.916 1.922 3.687 1.922.367.001.814-.043 1.307-.114zm-31.561-6.015a5.14 5.14 0 01-1.037.11c-.994 0-1.585-.391-1.585-1.033 0-.285.333-.64.701-.64.796 0 1.458.678 1.927 1.549l-.006.014zm-16.747 4.789a9.07 9.07 0 01.342 2.373c0 .676-.368 1.177-.775 1.177-.442 0-.59-.428-.59-1.14 0-.705.38-1.54 1.003-2.411l.02.001zm-35.447-8.626c-.023-2.637-.228-10.05 1.845-10.05.811 0 .922.855.922 2.351 0 3.162-1.203 5.756-2.76 7.703l-.007-.004zm-8.554 4.136c-1.293-.075-2.464-.322-2.464-1.115 0-.284.222-.498.59-.498.861 0 1.482.711 1.877 1.609l-.003.004zM8.282 21.668c-.503.611-.993 1.24-1.462 1.882h-.003c-2.29-2.166-4.129-6.82-4.13-10.623C2.687 3.49 9.174.82 9.507.82c.478 0 .332.106.332.747 0 .963-2.802 5.45-2.802 11.754 0 2.214.645 5.21 1.25 8.318l-.005.03zm.188.918c.46 2.441.853 4.909.853 7.083 0 4.665-1.622 8.015-3.944 8.015-1.88 0-1.88-1.96-1.88-3.277 0-3.998 2.12-8.204 4.967-11.82h.004z" fill="#CF4044"/></svg>