<svg width="204" height="42" fill="none" xmlns="http://www.w3.org/2000/svg"><g clip-path="url(#clip0_3_1606)"><path d="M1.855 6.876c-.292-.295-.586-1.864-.586-1.864 0-.883.294-1.275.294-1.275S6.736.99 15.91.99c3.025-.294 7.613-.294 12.493 1.275.293.295.586.589.586.883.293.589.293 1.275.293 1.57.293 1.275.293 2.158.293 2.746 0 .294-.586 1.275-.586 1.57-.293.882.293 4.02 0 5.492 0 1.57-.586 7.062-2.147 10.495-1.269 3.728-3.71 3.041-4.88 3.041l5.856 12.26H0l4.294-21.48s0-.588-.585-.883c-.976-.686-1.855-1.863-1.855-1.863s-.586-.589-1.269-4.022c0 0-.585-3.335 0-4.022.293-.294.879-.882 1.27-.882v-.294z" fill="#010101"/><path d="M23.817 12.663l-1.855-.589s-.292 0-.585.294c0 .295-.293 1.57-.293 1.57v.294l4.294 3.04s-3.318-.294-4.587-.294c-1.269.295-3.319 1.57-4.88 1.864-1.27.294-6.735.588-7.028.588L6.735 10.8s-.292-2.16-2.44-2.16c-1.854 0-2.147.294-2.147.588-.293.294 0 .589 0 .589l5.857 9.514s-4.002-1.863-5.466-3.727C1.66 14.33.977 9.131 1.66 8.249c.293-.59 3.709-1.57 4.88-1.275.586 0 1.27.588 1.562 1.275h.293S7.907 6.58 6.735 6.58c-2.147-.294-4.002.294-4.002.294h-.292c0-.294-.293-2.158-.293-2.158s0-.294.293-.588c0 0 5.466-2.452 13.762-2.452.879 0 8.59 0 12.201 1.569.293.294 0 1.275 0 2.158-.293.294-.878.589-.878.589-.293 0-.586.588-.586.588s.586 7.062.878 7.356c0 .295-.292.295-1.268.295h-4.002s-.879 0-.879-.589c0-.294.293-.883.293-.883h.878s1.66-.097.977-.097zm-5.759 6.179s3.709-.588 7.613.294c0 0 .879.589.879 1.275.097 0-6.052.295-8.492-1.57zm.293 6.179s.879-4.315 7.906-3.727c0 0 .586.294-.878 1.864-1.465 1.569-4.588 2.452-7.028 1.863z" fill="#EC2130"/><path d="M16.79 3.835s.878 0 4 .588c1.563.295 2.44.589 2.734.883.293 0 .293.294 0 .294 0 .295-4.002-1.275-6.442-.882 0 0-2.44.882-5.466 3.727h-1.269c.098 0 3.123-3.139 6.442-4.61z" fill="#010101"/><path d="M14.056 8.052s2.44-1.275 4.002-1.569c1.269-.294 2.148-.294 2.733 0 .586 0 1.27 1.57 1.27 1.864 0 0-1.855.883-3.71.589-1.561-.197-3.319-.197-4.295-.884z" fill="#010101"/><path d="M28.404 6.287c.293 0 .293 0 .586.294.293 0 0 .589 0 .589 0 .294-.293 0-1.561 0 .097 0 .683-.883.976-.883zM5.174 18.842l2.44 1.864 4.295 18.734H1.27l3.905-20.598zm6.15 9.22s5.172 3.334 6.149 4.61l.585 7.062h-4.002l-2.733-11.672zm9.174 6.473s3.026 3.042 4.002 5.199h-5.173l1.171-5.199z" fill="#EC2130"/><path d="M24.793 6.876s.293-.295.293.294c.293 1.57.878 5.199.878 5.493 0 .588-.585.294-.585.294l-.586-6.081zm-11.03-5.2h.293l1.562 2.747-.586.295-1.269-3.041zm-7.027 9.221S6.15 9.033 7.32 8.74c1.269-.294 2.733-.294 4.88-.294 0 0-3.025.588-4.001.883-1.171.294-1.464 1.57-1.464 1.57z" fill="#fff"/><path d="M50.464 24.433v10.201c0 3.825.39 5.59 4.294 5.59v.393H39.922v-.393c4.392 0 3.905-4.708 3.905-8.532V20.706c0-3.826.78-11.378-3.612-11.378v-.392h14.25v.392c-3.708 0-3.904 2.256-3.904 6.08v8.044h.684c5.954-5.983 6.637-7.062 7.028-7.65 3.025-4.905.194-6.278-1.465-6.278v-.589h12.104v.589c-2.05 0-5.954 3.237-8.297 5.1l-8.98 9.024c12.2.588 11.908 6.964 13.275 11.77.78 2.649 1.268 4.316 4.197 4.905v.294H58.271c-1.757-9.318-2.538-16.969-7.808-16.184zm28.794 1.275c0 4.414.683 5.59 3.22 5.59v.295H69.79v-.294c2.538 0 2.83-3.04 2.83-5.591V14.232c0-3.04-.683-4.708-3.22-4.708v-.588h9.858v16.772zM75.842.5a3.484 3.484 0 012.488 1.03 3.515 3.515 0 011.025 2.501 3.507 3.507 0 01-3.513 3.53 3.508 3.508 0 01-3.514-3.53 3.532 3.532 0 011.025-2.501A3.498 3.498 0 0175.842.5zm16.593 11.28c2.245-3.237 3.709-3.237 6.246-3.237 6.052 0 6.54 4.61 6.54 8.631v8.633c0 4.217.488 5.59 2.831 5.59v.295H96.046v-.296c2.147 0 2.147-1.863 2.147-5.59v-8.828c0-3.138.39-7.16-2.05-7.16-2.732 0-2.83 2.256-3.611 3.531v12.457c0 3.727.195 5.59 2.343 5.59v.296H82.967v-.296c2.342 0 2.733-1.961 2.733-5.59V14.232c0-3.139-.586-4.708-3.124-4.708v-.589h9.859v2.845zm62.664-2.844h4.685l-.781 1.569h-3.807v13.634c0 6.866 4.001 6.277 5.564 4.806l.097.392c-3.514 2.845-5.954 2.256-6.833 2.256-3.416 0-5.564-2.452-5.564-5.689v-15.4h-3.806v-.195c3.026-1.08 7.906-5.003 10.151-8.338h.391l-.097 6.965z" fill="#010101"/><path d="M158.319 20.51c0-5.494 4.881-12.065 10.834-12.065 5.467 0 10.64 5.885 10.64 11.672 0 6.866-5.857 11.869-10.64 11.869-5.856.097-10.834-5.199-10.834-11.477zm14.739-.59c0-6.865-.196-10.984-3.807-10.984-3.904 0-3.611 5.296-3.611 10.985 0 6.866 0 11.77 3.611 11.77 4.002-.098 3.807-4.904 3.807-11.77z" fill="#010101"/><path d="M188.285 11.78c2.245-3.237 3.709-3.237 6.246-3.237 6.052 0 6.54 4.61 6.54 8.632v8.632c0 4.217.391 5.59 2.831 5.59v.295h-12.006v-.295c2.147 0 2.147-1.863 2.147-5.59v-8.829c0-3.138.293-7.16-2.049-7.16-2.733 0-2.831 2.256-3.611 3.531v12.457c0 3.727.195 5.59 2.342 5.59v.296h-11.81v-.296c2.341 0 2.732-1.961 2.732-5.59V14.232c0-3.139-.585-4.708-3.122-4.708v-.588h9.858l-.098 2.844zm-68.618 16.38c-.683.883-1.659 3.826-5.271 3.826-4.197 0-7.418-3.826-7.418-11.575 0-6.277 4.002-11.868 8.59-11.868 3.318 0 4.489 2.943 4.489 2.943V9.132h10.054v.49s-3.318-.686-3.318 4.12v17.46c-.294 4.707-2.343 8.041-10.543 10.298l.098-.59c4.783-3.333 3.709-8.336 3.319-12.75zm.586-8.828c0-5.1-.391-10.102-3.709-10.102-2.343 0-2.928 4.021-2.928 11.378 0 6.18.488 10.2 2.83 10.2 2.05 0 3.709-4.61 3.709-9.612l.098-1.864z" fill="#010101"/><path d="M128.061 24.433h3.221c-.391 7.062 4.49 7.16 5.661 7.16 2.148 0 4.1-1.668 4.1-3.53 0-5.788-12.005-3.336-12.005-12.065 0-4.022 3.025-7.357 7.516-7.357 7.32 0 8.198 4.414 8.198 5.983h-2.733c.293-1.079-.195-5.59-4.88-5.59-3.807 0-3.612 3.138-3.612 3.335 0 5.59 12.982 3.53 12.982 11.867 0 4.218-3.514 7.651-8.199 7.946-8.101.195-10.249-5.69-10.249-7.75zm-57.49 9.024h5.759v.784h-2.343v6.278h-.976v-6.278h-2.44v-.784zm12.981 7.062v-7.062h5.173v.882H84.53v2.158h3.904v.785H84.53v2.354h4.294v.883h-5.27zm15.715-7.258c.879 0 1.562.196 2.05.686.488.49.781.981.781 1.57h-.976c-.098-.491-.293-.785-.683-1.08-.293-.293-.781-.392-1.367-.392-.622 0-1.218.247-1.66.687-.39.49-.682 1.275-.682 2.256 0 .784.195 1.47.585 2.06.39.49.977.785 1.757.785.684 0 1.269-.295 1.562-.785.195-.295.293-.687.39-1.177H102a3.604 3.604 0 01-.781 1.863c-.585.589-1.269.883-2.245.883-.78 0-1.464-.294-2.05-.784-.683-.687-1.073-1.668-1.073-3.042 0-1.078.293-1.863.78-2.55.781-.588 1.66-.98 2.636-.98zm10.444 7.258v-7.062h.977v2.942h3.708v-2.942h.976v7.062h-.976v-3.335h-3.708v3.335h-.977zm17.472 0v-7.062h1.171l3.514 5.689v-5.69h.975v7.063h-1.073l-3.611-5.69v5.69h-.976zm15.421-1.471c-.39-.49-.585-1.177-.585-1.962 0-.98.195-1.766.683-2.257.488-.49 1.074-.784 1.757-.784.781 0 1.367.294 1.757.784.391.49.683 1.178.683 2.06 0 .785-.195 1.472-.585 2.06-.391.59-.976.884-1.855.884-.781 0-1.464-.197-1.855-.785zm-.878-4.513c-.488.687-.683 1.472-.683 2.453 0 1.08.293 1.961.879 2.648.585.687 1.464 1.079 2.537 1.079 1.172 0 2.049-.392 2.636-1.275.488-.687.78-1.57.78-2.649 0-.98-.195-1.765-.683-2.452-.585-.784-1.561-1.176-2.733-1.176-1.269.098-2.147.49-2.733 1.372zm14.349 5.984v-7.062h.976v6.179h3.61v.883h-4.586zm13.567-1.471c-.39-.49-.586-1.177-.586-1.962 0-.98.196-1.766.684-2.257.488-.49 1.073-.784 1.757-.784.78 0 1.365.294 1.756.784.391.49.684 1.178.684 2.06 0 .785-.196 1.472-.587 2.06-.389.59-.976.884-1.853.884-.781 0-1.465-.197-1.855-.785zm-.878-4.513c-.488.687-.684 1.472-.684 2.453 0 1.08.293 1.961.878 2.648.586.687 1.464 1.079 2.539 1.079 1.171 0 2.049-.392 2.635-1.275.585-.687.781-1.57.781-2.649 0-.98-.196-1.765-.684-2.452-.585-.784-1.561-1.176-2.732-1.176-1.172.098-2.148.49-2.733 1.372zm17.471-1.274c.683 0 1.268.097 1.756.392.684.392 1.172.981 1.27 1.962h-.976c-.098-.49-.391-.883-.683-1.08-.391-.196-.781-.391-1.367-.391-.684 0-1.172.195-1.66.784-.488.49-.682 1.177-.682 2.158 0 .882.194 1.57.585 2.06.391.49.976.784 1.757.784.683 0 1.171-.196 1.562-.588.39-.393.585-.98.682-1.765h-2.244v-.883h3.123v3.825h-.585l-.195-.883c-.293.393-.587.588-.879.785-.39.196-.976.392-1.562.392a3.205 3.205 0 01-2.147-.784c-.684-.687-.976-1.57-.976-2.845 0-1.177.292-2.158.976-2.845.488-.784 1.269-1.078 2.245-1.078zm13.567 4.413l-2.635-4.217h1.073l2.05 3.433 1.952-3.433h1.172l-2.636 4.217v2.845h-.976v-2.845zm.878-30.504c0-.883.782-1.667 1.66-1.667.976 0 1.659.784 1.659 1.667 0 .98-.78 1.668-1.659 1.668-.976.098-1.66-.687-1.66-1.668zm3.027 0c0-.785-.587-1.471-1.367-1.471-.781 0-1.464.686-1.464 1.47 0 .786.586 1.472 1.464 1.472.78 0 1.367-.589 1.367-1.471zm-.587.98h-.292l-.488-.882h-.39v.883h-.195V6.287h.78c.488 0 .684.196.684.49 0 .393-.293.49-.587.49l.488.884zm-.878-1.078c.293 0 .684 0 .684-.294 0-.295-.195-.295-.488-.295h-.488v.687h.292v-.098z" fill="#010101"/></g><defs><clipPath id="clip0_3_1606"><path fill="#fff" transform="translate(0 .5)" d="M0 0h204v41H0z"/></clipPath></defs></svg>