<svg width="228" height="36" fill="none" xmlns="http://www.w3.org/2000/svg"><g clip-path="url(#clip0_3_571)"><path d="M0 0v36h207.313L228 0H0z" fill="#FFD20B"/><path d="M39.421 12.993c-.803-.695-1.835-.923-2.985-.923s-2.182.804-2.182 1.727c0 .575.347.923 1.26 1.26l1.497.458c1.725.575 2.648 1.498 2.648 2.987 0 2.879-2.41 5.29-6.437 5.29-1.835 0-3.213-.456-4.364-1.15l1.379-2.075c1.15.695 2.072 1.033 3.45 1.033 1.726 0 2.758-.923 2.758-2.184 0-.694-.456-1.151-1.379-1.38l-1.378-.456c-1.497-.457-2.41-1.261-2.41-2.76 0-2.65 2.529-4.833 5.633-4.833 1.606 0 3.213.457 4.135 1.38l-1.625 1.626zm7.121 2.53h-1.725l-1.032 4.944c-.119.347-.119.576-.119.804 0 .576.229.694.804.694.228 0 .694-.118.922-.228v1.498c-.694.229-1.497.457-2.182.457-1.497 0-2.3-.694-2.3-1.727 0-.347 0-.804.118-1.26l1.15-5.29h-.803l.347-1.728h.913c.228-.923.347-1.608.575-2.302l2.648-.695c-.229.923-.576 1.956-.804 2.988h2.3l-.812 1.846zm9.194 1.152l-.804 3.682c-.228.804-.118 1.38.347 1.956l-2.072 1.608c-.457-.348-.694-.804-.694-1.152-.694.805-1.497 1.152-2.648 1.152-1.725 0-2.647-1.033-2.647-3.107 0-2.302.922-4.367 2.072-5.637 1.032-1.033 2.3-1.499 3.908-1.499 1.15 0 2.41.228 3.213.694-.219.466-.557 1.499-.675 2.303zm-2.986-1.151c-.575 0-1.15 0-1.835.804-.803.923-1.15 2.878-1.15 4.139 0 .923.228 1.26.803 1.26.804 0 1.607-.803 1.835-1.498l1.032-4.605c-.11.018-.457-.1-.685-.1zm8.043-2.065c.12.347.229 1.151.229 1.608.803-.923 1.835-1.499 3.332-1.499 1.26 0 1.954.695 1.954 1.956 0 .457 0 .923-.12 1.38l-1.378 6.67h-2.529l1.379-6.323c.119-.348.119-.695.119-.923 0-.457-.229-.576-.694-.576-.575 0-1.379.347-2.182 1.499l-1.379 6.322h-2.529l1.38-6.56c.227-1.032.227-1.955 0-2.53l2.418-1.024zm11.148-1.152l-1.498 7.246c-.228 1.151-.347 1.608-.347 1.837 0 .347.119.575.457.575h.228l.119 1.499a6.547 6.547 0 01-1.607.228c-1.379 0-2.073-.694-2.073-1.727 0-.347.12-1.032.229-1.727l1.497-7.245c.228-1.261.457-2.184.228-2.878l2.766-.795c.347.457.347 1.836 0 2.987zm8.27 10.124c-1.26.923-2.647 1.38-4.025 1.38-2.3 0-3.68-1.26-3.68-3.563 0-2.075.923-4.14 2.183-5.41.922-.922 2.072-1.26 3.332-1.26 1.953 0 3.332.804 3.332 2.65 0 1.845-1.716 3.325-4.93 3.325-.694 0-1.15-.119-1.15-.119s-.119.576-.119.923c0 1.152.575 1.608 1.607 1.608.922 0 1.835-.347 2.757-1.032l.694 1.498zm-3.788-4.605c1.15 0 2.41-.347 2.41-1.38 0-.575-.228-1.032-1.031-1.032-.923 0-1.726.576-2.073 2.303 0 0 .347.11.694.11zm8.847-4.258l.456 5.748c0 .575.119 2.074.119 2.074s.694-1.727 1.26-2.878l2.41-4.606h2.757l-5.633 9.896c-1.032 1.837-1.725 2.76-2.529 3.216a6.173 6.173 0 01-2.529.923l-.456-1.727a7.975 7.975 0 001.725-.575c.804-.457 1.032-.923 1.726-1.956h-.694c0-.694-.119-1.955-.228-2.76l-.922-6.898 2.538-.457zm14.132-3.335c1.954 0 3.451.923 3.451 2.879 0 1.26-.803 2.759-2.757 3.335 1.26.228 1.954 1.38 1.954 2.53 0 .805-.347 2.184-1.26 3.107-.922 1.033-2.073 1.38-4.136 1.38h-4.83l2.876-13.23h4.702zM94.929 21.39h1.725c.575 0 1.032-.119 1.379-.348.575-.347 1.031-1.26 1.031-1.955 0-.923-.456-1.26-1.725-1.26h-1.607l-.803 3.563zm1.26-5.866h1.606c.694 0 1.032-.119 1.379-.347.456-.348.803-.804.803-1.499 0-.804-.347-1.151-1.497-1.151h-1.607l-.685 2.997zm11.95-3.216l-1.607 7.245c-.228 1.151-.347 1.608-.347 1.837 0 .347.119.575.457.575h.228l.119 1.499a6.554 6.554 0 01-1.607.228c-1.379 0-2.073-.694-2.073-1.727 0-.347.119-1.032.229-1.727l1.497-7.245c.228-1.261.456-2.184.228-2.878l2.757-.804c.347.466.347 1.845.119 2.996zm9.312 4.367l-.803 3.682c-.119.804-.119 1.38.347 1.956l-2.073 1.608c-.456-.348-.694-.804-.694-1.152-.694.805-1.497 1.152-2.647 1.152-1.726 0-2.648-1.033-2.648-3.107 0-2.302.922-4.367 2.073-5.637 1.031-1.033 2.3-1.499 3.907-1.499 1.15 0 2.41.228 3.214.694-.219.466-.448 1.499-.676 2.303zm-2.876-1.151c-.575 0-1.15 0-1.835.804-.803.923-1.15 2.878-1.15 4.139 0 .923.228 1.26.803 1.26.804 0 1.607-.803 1.835-1.498l1.032-4.605c-.11.018-.457-.1-.685-.1zm11.038.694c-.457-.457-.922-.694-1.497-.694-.457 0-.804.228-1.151.575-.694.804-1.378 2.879-1.378 4.368 0 1.032.456 1.498 1.15 1.498s1.379-.347 2.182-.922l.803 1.608c-1.031.804-2.182 1.26-3.56 1.26-2.182 0-3.332-1.26-3.332-3.335 0-2.412 1.15-4.604 2.528-5.747.923-.694 1.835-1.15 3.214-1.15.922 0 1.835.346 2.648 1.15l-1.607 1.39zm6.546-6.898c.118.457.118 1.608-.347 3.682l-2.301 10.58h-2.52l2.301-10.699c.228-1.38.347-2.184.228-2.65l2.639-.913zm5.167 4.486l-4.026 4.258 2.647 5.519h-2.985l-2.072-5.52 3.332-4.257h3.104zm11.037 3.216c-.228 1.261-.803 2.76-1.497 3.792l2.182 2.76h-3.332l-.694-.805c-.922.695-2.072 1.152-3.907 1.152-2.648 0-4.136-1.261-4.136-3.107 0-1.608 1.15-2.988 3.214-3.91-.804-.695-1.032-1.38-1.032-2.184 0-2.074 1.954-3.792 4.483-3.792 1.953 0 3.213.923 3.213 2.412 0 1.49-.575 2.531-2.985 3.682l-.228.119 1.725 2.074c.347-.575.575-1.727.694-2.074h2.3v-.119zm-8.508 3.564c0 .923.694 1.38 1.835 1.38.922 0 1.607-.23 2.182-.695l-2.529-2.988c-.913.466-1.488 1.27-1.488 2.303zm4.601-7.018c0-.575-.347-.922-.922-.922-.803 0-1.497.694-1.497 1.608 0 .347.118.804.803 1.498.922-.457 1.616-1.38 1.616-2.184zm11.832-3.335c2.182 0 3.56.229 4.364 1.261.575.804 1.031 1.608 1.031 3.216 0 2.184-.803 5.063-2.41 6.79-1.378 1.498-2.757 1.955-5.633 1.955h-3.213l2.876-13.23 2.985.008zm-2.757 11.157h1.26c1.15 0 1.953-.576 2.529-1.38 1.15-1.837 1.378-4.486 1.378-5.172 0-1.26-.347-2.412-2.072-2.412h-1.151l-1.944 8.964zm16.433 1.041c-1.26.923-2.648 1.38-3.908 1.38-2.3 0-3.679-1.26-3.679-3.563 0-2.075.922-4.14 2.182-5.41.922-.922 2.073-1.26 3.332-1.26 1.954 0 3.333.804 3.333 2.65 0 1.845-1.726 3.334-4.939 3.334-.694 0-1.151-.119-1.151-.119s-.118.576-.118.923c0 1.152.575 1.608 1.606 1.608.923 0 1.836-.347 2.758-1.032l.584 1.49zm-3.67-4.605c1.15 0 2.41-.347 2.41-1.38 0-.575-.228-1.032-1.032-1.032-.922 0-1.725.576-2.072 2.303-.11 0 .347.11.694.11zm12.525-1.608c-.456-.457-.922-.694-1.497-.694-.456 0-.803.228-1.15.575-.694.804-1.379 2.879-1.379 4.368 0 1.032.457 1.498 1.151 1.498s1.378-.347 2.182-.922l.803 1.608c-1.032.804-2.182 1.26-3.56 1.26-2.182 0-3.333-1.26-3.333-3.335 0-2.412 1.151-4.604 2.529-5.747.922-.694 1.835-1.15 3.214-1.15.922 0 1.835.346 2.647 1.15l-1.607 1.39zm6.546-6.898c.119.457.119 1.608-.347 3.682l-2.3 10.58h-2.529l2.31-10.699c.228-1.38.347-2.184.228-2.65l2.638-.913zm5.177 4.486l-4.026 4.258 2.647 5.519h-2.985l-2.073-5.52 3.214-4.257h3.223zm7.349 8.625c-1.26.923-2.648 1.38-4.026 1.38-2.301 0-3.679-1.26-3.679-3.563 0-2.075.922-4.14 2.182-5.41.922-.922 2.072-1.26 3.332-1.26 1.954 0 3.332.804 3.332 2.65 0 1.845-1.725 3.334-4.939 3.334-.694 0-1.15-.119-1.15-.119s-.119.576-.119.923c0 1.152.575 1.608 1.607 1.608.922 0 1.835-.347 2.757-1.032l.703 1.49zm-3.789-4.605c1.151 0 2.41-.347 2.41-1.38 0-.575-.228-1.032-1.031-1.032-.922 0-1.726.576-2.073 2.303 0 0 .347.11.694.11zm9.312-4.367c.119.347.347 1.032.229 1.608.803-.923 1.725-1.499 2.757-1.499.347 0 .575 0 .922.229l-1.151 2.302c-.228-.118-.456-.228-.693-.228-.457 0-1.032.228-1.835 1.38l-1.379 6.441h-2.529l1.379-6.441c.228-1.261.228-2.075 0-2.76l2.3-1.032z" fill="#000"/></g><defs><clipPath id="clip0_3_571"><path fill="#fff" d="M0 0h228v36H0z"/></clipPath></defs></svg>