<svg width="82" height="69" fill="none" xmlns="http://www.w3.org/2000/svg"><path d="M35.063 12.208v12.207l-6.4-3.184c-3.52-1.699-6.827-3.185-7.467-3.185-2.454 0-.747 3.29 3.84 7.325 3.307 2.866 4.48 4.458 3.52 4.777-.853.318-7.147 2.017-14.187 3.715C1.248 37.048-1.42 38.428.608 40.445c.746.743 5.867.424 17.28-1.274 8.961-1.274 16.535-2.017 16.855-1.699.32.425-1.493 4.14-3.947 8.386-2.56 4.247-4.693 8.068-4.907 8.387-.213.424.32 1.274 1.067 1.91 1.28 1.062 2.347.531 5.76-2.441 2.347-2.123 4.694-3.822 5.228-3.822.533 0 1.6 3.185 2.453 7.113C42.211 66.134 43.491 69 45.837 69c2.88 0 3.414-3.29 2.56-15.498-.426-6.157-.426-11.04.107-11.04.534 0 4.8 1.698 9.494 3.715 9.281 4.034 12.268 4.565 12.268 2.23 0-2.124-1.707-3.61-9.92-9.236-3.948-2.548-7.148-4.99-7.148-5.308 0-.318 5.44-2.123 12.054-4.034C77.093 26.432 82 24.203 82 22.292c0-1.592-6.72-1.274-17.388.637-5.12.956-9.707 1.486-10.027 1.062-.32-.319.426-3.079 1.706-6.051 4.8-11.57 1.814-12.632-5.653-1.91-2.774 4.14-5.547 7.111-5.974 6.58-.427-.424-1.6-4.67-2.667-9.34C39.864 3.29 38.477 0 36.45 0c-1.067 0-1.387 2.76-1.387 12.208z" fill="#E6311F"/></svg>