<svg width="52" height="53" fill="none" xmlns="http://www.w3.org/2000/svg"><path d="M32.648 11.991l-1.487-9.934c-.318-2.124-3.303-2.323-3.899-.26l-3.269 11.304a2 2 0 01-2.607 1.323l-13.77-5.03c-1.98-.723-3.588 1.714-2.142 3.25l8.689 9.23a2 2 0 01-.388 3.062L1.026 32.99c-1.871 1.182-.72 4.078 1.452 3.654l14.633-2.861a2 2 0 012.384 1.963v14.366c0 2.133 2.894 2.784 3.807.856l7.567-15.96a2 2 0 012.541-1.004l15.463 6.103c2.026.8 3.69-1.756 2.138-3.285L39.208 25.191a2 2 0 01.125-2.962l9.356-7.781c1.616-1.344.331-3.952-1.72-3.489l-11.903 2.687a2 2 0 01-2.418-1.655z" fill="#E6311F"/></svg>