<svg width="161" height="113" fill="none" xmlns="http://www.w3.org/2000/svg"><path d="M80.648 1.5c-52.51 0-78.506 19.186-78.506 42.853 0 14.656 10.484 27.594 30.619 35.32L22.022 108.27 56.27 85.562c7.403 1.07 15.535 1.644 24.38 1.644 51.168 0 78.506-19.186 78.506-42.853 0-22.75-27.402-48.458-89.862-27.639" stroke="#E6311F" stroke-width="3"/><path d="M33.639 41.11s1.833 17.17 10.01 19.376c10.651 2.874 14.62-24.34 14.62-24.34s5.221 24.48 16.685 24.34c12.21-.149 14.3-28.023 14.3-28.023s5.881 30.856 20.023 30.425c13.487-.41 19.386-28.823 19.386-28.823" stroke="#E6311F" stroke-width="3"/></svg>