<svg width="80" height="80" fill="none" xmlns="http://www.w3.org/2000/svg"><path d="M53.872 20.608c12.286-1.277 22.448 5.259 23.885 12.7 1.484 7.681-3.773 16.943-17.386 21.323-.21 12.371-4.734 21.583-12.688 23.118-7.955 1.535-15.764-3.958-21.22-16.64C13.206 62.442 3.08 55.13 2.104 46.238c-.976-8.892 4.87-15.58 17.752-18.995-1.022-13.42 3.785-22.13 13.437-23.993 9.652-1.862 18.504 6.993 20.578 17.359z" stroke="#E6311F" stroke-width="3"/><path d="M53.66 38.143c1.43 7.4-2.396 14.546-9.8 15.974-7.404 1.43-15.252-1.69-17.011-10.801-1.43-7.4 2.25-13.502 10.818-15.986 7.637-2.215 14.372 2.416 15.994 10.813z" stroke="#E6311F" stroke-width="3"/></svg>