<svg width="82" height="59" fill="none" xmlns="http://www.w3.org/2000/svg"><path d="M41.001 2.08C15.228 2.08 2.47 11.497 2.47 23.113c0 7.194 5.145 13.544 15.028 17.337l-5.27 14.035L29.034 43.34c3.634.525 7.625.806 11.966.806 25.115 0 38.533-9.416 38.533-21.033 0-11.166-13.45-23.784-44.106-13.565" stroke="#E6311F" stroke-width="3"/><path d="M17.928 21.521s.9 8.427 4.913 9.51c5.228 1.411 7.176-11.946 7.176-11.946S32.58 31.1 38.206 31.032c5.993-.074 7.02-13.755 7.02-13.755s2.886 15.145 9.827 14.933c6.62-.201 9.515-14.147 9.515-14.147" stroke="#E6311F" stroke-width="3"/></svg>